<svg width="9492" height="35" viewBox="0 0 9492 35" fill="none" xmlns="http://www.w3.org/2000/svg">
<rect width="9492" height="35" fill="#E4E0DA"/>
<path d="M0 0L75.34 0L108.866 35H33.5263L0 0Z" fill="#D10E0E"/>
<path d="M150.738 0L226.078 0L259.604 35H184.264L150.738 0Z" fill="#D10E0E"/>
<path d="M1663.14 0L1738.48 0L1772.01 35H1696.67L1663.14 0Z" fill="#D10E0E"/>
<path d="M755.365 0L830.705 0L864.231 35H788.891L755.365 0Z" fill="#D10E0E"/>
<path d="M2267.77 0L2343.11 0L2376.64 35H2301.3L2267.77 0Z" fill="#D10E0E"/>
<path d="M453.889 0L529.229 0L562.755 35H487.415L453.889 0Z" fill="#D10E0E"/>
<path d="M1964.62 0L2039.96 0L2073.48 35H1998.14L1964.62 0Z" fill="#D10E0E"/>
<path d="M1058.52 0L1133.86 0L1167.38 35H1092.04L1058.52 0Z" fill="#D10E0E"/>
<path d="M2569.25 0L2644.59 0L2678.11 35H2602.77L2569.25 0Z" fill="#D10E0E"/>
<path d="M1359.99 0L1435.33 0L1468.86 35H1393.52L1359.99 0Z" fill="#D10E0E"/>
<path d="M2872.4 0L2947.74 0L2981.26 35H2905.92L2872.4 0Z" fill="#D10E0E"/>
<path d="M301.476 0L377.975 0L412.017 35H335.518L301.476 0Z" fill="#D10E0E"/>
<path d="M1813.88 0L1889.22 0L1922.75 35H1847.41L1813.88 0Z" fill="#D10E0E"/>
<path d="M906.103 0L982.602 0L1016.64 35H940.145L906.103 0Z" fill="#D10E0E"/>
<path d="M2418.51 0L2493.85 0L2527.37 35H2452.03L2418.51 0Z" fill="#D10E0E"/>
<path d="M604.627 0L679.967 0L713.493 35H638.153L604.627 0Z" fill="#D10E0E"/>
<path d="M2115.36 0L2191.86 0L2225.9 35H2149.4L2115.36 0Z" fill="#D10E0E"/>
<path d="M1209.25 0L1284.59 0L1318.12 35H1242.78L1209.25 0Z" fill="#D10E0E"/>
<path d="M2719.98 0L2796.48 0L2830.52 35H2754.03L2719.98 0Z" fill="#D10E0E"/>
<path d="M1510.73 0L1587.23 0L1621.27 35H1544.77L1510.73 0Z" fill="#D10E0E"/>
<path d="M3023.13 0L3098.47 0L3132 35H3056.66L3023.13 0Z" fill="#D10E0E"/>
<path d="M75.3689 0L150.709 0L184.235 35H108.895L75.3689 0Z" fill="#E4E0DA"/>
<path d="M1587.77 0L1663.11 0L1696.64 35H1621.3L1587.77 0Z" fill="#E4E0DA"/>
<path d="M679.996 0L755.336 0L788.862 35H713.522L679.996 0Z" fill="#E4E0DA"/>
<path d="M2192.4 0L2267.74 0L2301.27 35H2225.93L2192.4 0Z" fill="#E4E0DA"/>
<path d="M378.52 0L453.86 0L487.386 35H412.046L378.52 0Z" fill="#E4E0DA"/>
<path d="M1889.25 0L1964.59 0L1998.12 35H1922.78L1889.25 0Z" fill="#E4E0DA"/>
<path d="M983.146 0L1058.49 0L1092.01 35H1016.67L983.146 0Z" fill="#E4E0DA"/>
<path d="M2493.88 0L2569.22 0L2602.74 35H2527.4L2493.88 0Z" fill="#E4E0DA"/>
<path d="M1284.62 0L1359.96 0L1393.49 35H1318.15L1284.62 0Z" fill="#E4E0DA"/>
<path d="M2795.35 0L2871.85 0L2905.89 35H2829.39L2795.35 0Z" fill="#E4E0DA"/>
<path d="M226.107 0L302.606 0L336.648 35H260.149L226.107 0Z" fill="#E4E0DA"/>
<path d="M1738.51 0L1813.85 0L1847.38 35H1772.04L1738.51 0Z" fill="#E4E0DA"/>
<path d="M830.734 0L906.074 0L939.6 35H864.26L830.734 0Z" fill="#E4E0DA"/>
<path d="M2343.14 0L2418.48 0L2452 35H2376.66L2343.14 0Z" fill="#E4E0DA"/>
<path d="M529.258 0L604.598 0L638.124 35H562.784L529.258 0Z" fill="#E4E0DA"/>
<path d="M2039.99 0L2115.33 0L2148.85 35H2073.51L2039.99 0Z" fill="#E4E0DA"/>
<path d="M1133.88 0L1209.22 0L1242.75 35H1167.41L1133.88 0Z" fill="#E4E0DA"/>
<path d="M2644.61 0L2719.95 0L2753.48 35H2678.14L2644.61 0Z" fill="#E4E0DA"/>
<path d="M1435.36 0L1510.7 0L1544.23 35H1468.89L1435.36 0Z" fill="#E4E0DA"/>
<path d="M2947.76 0L3023.1 0L3056.63 35H2981.29L2947.76 0Z" fill="#E4E0DA"/>
<path d="M3180 0L3255.34 0L3288.87 35H3213.53L3180 0Z" fill="#D10E0E"/>
<path d="M3330.74 0L3406.08 0L3439.6 35H3364.26L3330.74 0Z" fill="#D10E0E"/>
<path d="M4843.14 0L4918.48 0L4952.01 35H4876.67L4843.14 0Z" fill="#D10E0E"/>
<path d="M3935.36 0L4010.7 0L4044.23 35H3968.89L3935.36 0Z" fill="#D10E0E"/>
<path d="M5447.77 0L5523.11 0L5556.64 35H5481.3L5447.77 0Z" fill="#D10E0E"/>
<path d="M3633.89 0L3709.23 0L3742.75 35H3667.41L3633.89 0Z" fill="#D10E0E"/>
<path d="M5144.62 0L5219.96 0L5253.48 35H5178.14L5144.62 0Z" fill="#D10E0E"/>
<path d="M4238.52 0L4313.86 0L4347.38 35H4272.04L4238.52 0Z" fill="#D10E0E"/>
<path d="M5749.25 0L5824.59 0L5858.11 35H5782.77L5749.25 0Z" fill="#D10E0E"/>
<path d="M4539.99 0L4615.33 0L4648.86 35H4573.52L4539.99 0Z" fill="#D10E0E"/>
<path d="M6052.4 0L6127.74 0L6161.26 35H6085.92L6052.4 0Z" fill="#D10E0E"/>
<path d="M3481.48 0L3557.98 0L3592.02 35H3515.52L3481.48 0Z" fill="#D10E0E"/>
<path d="M4993.88 0L5069.22 0L5102.75 35H5027.41L4993.88 0Z" fill="#D10E0E"/>
<path d="M4086.1 0L4162.6 0L4196.64 35H4120.14L4086.1 0Z" fill="#D10E0E"/>
<path d="M5598.51 0L5673.85 0L5707.37 35H5632.03L5598.51 0Z" fill="#D10E0E"/>
<path d="M3784.63 0L3859.97 0L3893.49 35H3818.15L3784.63 0Z" fill="#D10E0E"/>
<path d="M5295.36 0L5371.86 0L5405.9 35H5329.4L5295.36 0Z" fill="#D10E0E"/>
<path d="M4389.25 0L4464.59 0L4498.12 35H4422.78L4389.25 0Z" fill="#D10E0E"/>
<path d="M5899.98 0L5976.48 0L6010.52 35H5934.02L5899.98 0Z" fill="#D10E0E"/>
<path d="M4690.73 0L4767.23 0L4801.27 35H4724.77L4690.73 0Z" fill="#D10E0E"/>
<path d="M6203.13 0L6278.47 0L6312 35H6236.66L6203.13 0Z" fill="#D10E0E"/>
<path d="M3255.37 0L3330.71 0L3364.24 35H3288.9L3255.37 0Z" fill="#E4E0DA"/>
<path d="M4767.77 0L4843.11 0L4876.64 35H4801.3L4767.77 0Z" fill="#E4E0DA"/>
<path d="M3860 0L3935.34 0L3968.86 35H3893.52L3860 0Z" fill="#E4E0DA"/>
<path d="M5372.4 0L5447.74 0L5481.27 35H5405.93L5372.4 0Z" fill="#E4E0DA"/>
<path d="M3558.52 0L3633.86 0L3667.39 35H3592.05L3558.52 0Z" fill="#E4E0DA"/>
<path d="M5069.25 0L5144.59 0L5178.12 35H5102.78L5069.25 0Z" fill="#E4E0DA"/>
<path d="M4163.15 0L4238.49 0L4272.01 35H4196.67L4163.15 0Z" fill="#E4E0DA"/>
<path d="M5673.88 0L5749.22 0L5782.74 35H5707.4L5673.88 0Z" fill="#E4E0DA"/>
<path d="M4464.62 0L4539.96 0L4573.49 35H4498.15L4464.62 0Z" fill="#E4E0DA"/>
<path d="M5975.35 0L6051.85 0L6085.89 35H6009.39L5975.35 0Z" fill="#E4E0DA"/>
<path d="M3406.11 0L3482.61 0L3516.65 35H3440.15L3406.11 0Z" fill="#E4E0DA"/>
<path d="M4918.51 0L4993.85 0L5027.38 35H4952.04L4918.51 0Z" fill="#E4E0DA"/>
<path d="M4010.73 0L4086.07 0L4119.6 35H4044.26L4010.73 0Z" fill="#E4E0DA"/>
<path d="M5523.14 0L5598.48 0L5632 35H5556.66L5523.14 0Z" fill="#E4E0DA"/>
<path d="M3709.26 0L3784.6 0L3818.12 35H3742.78L3709.26 0Z" fill="#E4E0DA"/>
<path d="M5219.99 0L5295.33 0L5328.85 35H5253.51L5219.99 0Z" fill="#E4E0DA"/>
<path d="M4313.88 0L4389.22 0L4422.75 35H4347.41L4313.88 0Z" fill="#E4E0DA"/>
<path d="M5824.61 0L5899.95 0L5933.48 35H5858.14L5824.61 0Z" fill="#E4E0DA"/>
<path d="M4615.36 0L4690.7 0L4724.23 35H4648.89L4615.36 0Z" fill="#E4E0DA"/>
<path d="M6127.76 0L6203.1 0L6236.63 35H6161.29L6127.76 0Z" fill="#E4E0DA"/>
<path d="M6360 0L6435.34 0L6468.87 35H6393.53L6360 0Z" fill="#D10E0E"/>
<path d="M6510.74 0L6586.08 0L6619.6 35H6544.26L6510.74 0Z" fill="#D10E0E"/>
<path d="M8023.14 0L8098.48 0L8132.01 35H8056.67L8023.14 0Z" fill="#D10E0E"/>
<path d="M7115.36 0L7190.7 0L7224.23 35H7148.89L7115.36 0Z" fill="#D10E0E"/>
<path d="M8627.77 0L8703.11 0L8736.64 35H8661.3L8627.77 0Z" fill="#D10E0E"/>
<path d="M6813.89 0L6889.23 0L6922.75 35H6847.41L6813.89 0Z" fill="#D10E0E"/>
<path d="M8324.62 0L8399.96 0L8433.48 35H8358.14L8324.62 0Z" fill="#D10E0E"/>
<path d="M7418.52 0L7493.86 0L7527.38 35H7452.04L7418.52 0Z" fill="#D10E0E"/>
<path d="M8929.25 0L9004.59 0L9038.11 35H8962.77L8929.25 0Z" fill="#D10E0E"/>
<path d="M7719.99 0L7795.33 0L7828.86 35H7753.52L7719.99 0Z" fill="#D10E0E"/>
<path d="M9232.4 0L9307.74 0L9341.26 35H9265.92L9232.4 0Z" fill="#D10E0E"/>
<path d="M6661.48 0L6737.97 0L6772.02 35H6695.52L6661.48 0Z" fill="#D10E0E"/>
<path d="M8173.88 0L8249.22 0L8282.75 35H8207.41L8173.88 0Z" fill="#D10E0E"/>
<path d="M7266.1 0L7342.6 0L7376.64 35H7300.14L7266.1 0Z" fill="#D10E0E"/>
<path d="M8778.51 0L8853.85 0L8887.37 35H8812.03L8778.51 0Z" fill="#D10E0E"/>
<path d="M6964.63 0L7039.97 0L7073.49 35H6998.15L6964.63 0Z" fill="#D10E0E"/>
<path d="M8475.36 0L8551.86 0L8585.9 35H8509.4L8475.36 0Z" fill="#D10E0E"/>
<path d="M7569.25 0L7644.59 0L7678.12 35H7602.78L7569.25 0Z" fill="#D10E0E"/>
<path d="M9079.98 0L9156.48 0L9190.52 35H9114.02L9079.98 0Z" fill="#D10E0E"/>
<path d="M7870.73 0L7947.23 0L7981.27 35H7904.77L7870.73 0Z" fill="#D10E0E"/>
<path d="M9383.13 0L9458.47 0L9492 35H9416.66L9383.13 0Z" fill="#D10E0E"/>
<path d="M6435.37 0L6510.71 0L6544.24 35H6468.9L6435.37 0Z" fill="#E4E0DA"/>
<path d="M7947.77 0L8023.11 0L8056.64 35H7981.3L7947.77 0Z" fill="#E4E0DA"/>
<path d="M7040 0L7115.34 0L7148.86 35H7073.52L7040 0Z" fill="#E4E0DA"/>
<path d="M8552.4 0L8627.74 0L8661.27 35H8585.93L8552.4 0Z" fill="#E4E0DA"/>
<path d="M6738.52 0L6813.86 0L6847.39 35H6772.05L6738.52 0Z" fill="#E4E0DA"/>
<path d="M8249.25 0L8324.59 0L8358.12 35H8282.78L8249.25 0Z" fill="#E4E0DA"/>
<path d="M7343.15 0L7418.49 0L7452.01 35H7376.67L7343.15 0Z" fill="#E4E0DA"/>
<path d="M8853.88 0L8929.22 0L8962.74 35H8887.4L8853.88 0Z" fill="#E4E0DA"/>
<path d="M7644.62 0L7719.96 0L7753.49 35H7678.15L7644.62 0Z" fill="#E4E0DA"/>
<path d="M9155.35 0L9231.85 0L9265.89 35H9189.39L9155.35 0Z" fill="#E4E0DA"/>
<path d="M6586.11 0L6662.61 0L6696.65 35H6620.15L6586.11 0Z" fill="#E4E0DA"/>
<path d="M8098.51 0L8173.85 0L8207.38 35H8132.04L8098.51 0Z" fill="#E4E0DA"/>
<path d="M7190.73 0L7266.07 0L7299.6 35H7224.26L7190.73 0Z" fill="#E4E0DA"/>
<path d="M8703.14 0L8778.48 0L8812 35H8736.66L8703.14 0Z" fill="#E4E0DA"/>
<path d="M6889.26 0L6964.6 0L6998.12 35H6922.78L6889.26 0Z" fill="#E4E0DA"/>
<path d="M8399.99 0L8475.33 0L8508.85 35H8433.51L8399.99 0Z" fill="#E4E0DA"/>
<path d="M7493.88 0L7569.22 0L7602.75 35H7527.41L7493.88 0Z" fill="#E4E0DA"/>
<path d="M9004.61 0L9079.95 0L9113.48 35H9038.14L9004.61 0Z" fill="#E4E0DA"/>
<path d="M7795.36 0L7870.7 0L7904.23 35H7828.89L7795.36 0Z" fill="#E4E0DA"/>
<path d="M9307.76 0L9383.1 0L9416.63 35H9341.29L9307.76 0Z" fill="#E4E0DA"/>
</svg>
